#!OML:ASF Z:\Project 1\Capture day 1\Session 1\Male1.ASF
:FULLY-SPECIFIED
:DEGREES
939
root 23.7701 16.5721 -5.9829 -168.802 32.8538 -180.221
lowerback -0.677372 -3.09121 -1.75474
upperback 1.3834 -4.10639 2.28063
thorax 2.0919 -2.08717 3.21474
lowerneck -13.5515 -4.32868 -2.21713
upperneck -9.40726 -4.50086 4.44802
head -0.551956 -1.81367 1.60266
rclavicle -5.19822e-014 2.22639e-014
rhumerus 71.4467 -16.3597 -46.6862
rradius 66.7193
rwrist 30.2107
rhand -46.6906 46.3573
rfingers 7.12502
rthumb -19.4098 17.306
lclavicle -5.19822e-014 2.22639e-014
lhumerus 88.989 -7.52718 48.3564
lradius 30.8753
lwrist -24.3594
lhand -35.1161 60.8964
lfingers 7.12502
lthumb -8.2568 -90.715
rfemur -20.4254 -3.37879 20.9309
rtibia 20.9621
rfoot -8.41477 -9.11677
rtoes -3.24617
lfemur 10.78 -6.6702 -14.751
ltibia 10.6161
lfoot 8.9926 0.635811
ltoes 40.2686
940
root 23.7781 16.5724 -5.98052 -168.708 32.7566 -180.331
lowerback -0.630942 -3.06364 -1.80936
upperback 1.35512 -4.06933 2.2785
thorax 2.03784 -2.06878 3.24785
lowerneck -13.5094 -4.41905 -1.74644
upperneck -9.34472 -4.70293 4.19972
head -0.55255 -1.93465 1.43404
rclavicle 5.96354e-016 2.66371e-014
rhumerus 71.9092 -16.506 -48.272
rradius 68.1637
rwrist 31.2122
rhand -48.1342 46.7623
rfingers 7.12502
rthumb -20.7973 17.8569
lclavicle 5.96354e-016 2.66371e-014
lhumerus 89.0342 -7.45476 48.1328
lradius 31.198
lwrist -24.0955
lhand -35.0208 60.8609
lfingers 7.12502
lthumb -8.16486 -90.6831
rfemur -20.5815 -3.38461 20.8748
rtibia 20.9926
rfoot -8.44392 -9.28337
rtoes 0.383817
lfemur 10.5903 -6.43953 -14.7076
ltibia 10.5399
lfoot 9.11805 0.314404
ltoes 39.7669
941
root 23.7839 16.5745 -5.98084 -168.573 32.6795 -180.274
lowerback -0.559988 -3.0051 -1.6907
upperback 1.32236 -3.99247 2.29646
thorax 1.95174 -2.02697 3.20763
lowerneck -13.519 -4.63029 -2.50265
upperneck -9.47852 -4.85261 4.68354
head -0.553448 -1.97764 1.7149
rclavicle 1.14301e-014 2.94201e-014
rhumerus 72.187 -16.5566 -49.4761
rradius 69.6308
rwrist 32.0054
rhand -49.1857 47.5004
rfingers 7.12502
rthumb -21.8074 18.7091
lclavicle 1.14301e-014 2.94201e-014
lhumerus 89.0547 -7.50775 48.1851
lradius 31.5153
lwrist -24.1009
lhand -34.8297 60.8564
lfingers 7.12502
lthumb -7.9804 -90.6857
rfemur -20.6949 -3.44634 20.9657
rtibia 21.0307
rfoot -8.44116 -9.28879
rtoes -2.96809
lfemur 10.519 -6.36852 -14.5935
ltibia 10.4114
lfoot 9.16646 0.115935
ltoes 38.981
942
root 23.7845 16.5768 -5.98086 -168.462 32.5287 -180.187
lowerback -0.457437 -2.96697 -1.48336
upperback 1.29619 -3.94328 2.29547
thorax 1.84936 -1.99739 3.09889
lowerneck -13.2884 -4.79122 -2.8535
upperneck -9.60136 -5.00776 5.14479
head -0.599323 -2.04532 1.92496
rclavicle -7.50412e-014 -1.90833e-014
rhumerus 72.5921 -16.6825 -50.9212
rradius 70.5997
rwrist 32.8879
rhand -50.8152 46.4206
rfingers 7.12502
rthumb -23.3714 17.8195
lclavicle -7.50412e-014 -1.90833e-014
lhumerus 89.1203 -7.62706 48.3671
lradius 31.7293
lwrist -24.295
lhand -34.6471 60.8129
lfingers 7.12502
lthumb -7.80413 -90.6488
rfemur -20.7565 -3.55091 21.0523
rtibia 21.0043
rfoot -8.59897 -9.22803
rtoes -0.209897
lfemur 10.4212 -6.32488 -14.4538
ltibia 10.3759
lfoot 9.24566 -0.124088
ltoes 38.5365
943
root 23.7977 16.5781 -5.97585 -168.38 32.4223 -180.304
lowerback -0.498516 -2.90301 -1.62446
upperback 1.33306 -3.85661 2.27928
thorax 1.913 -1.9573 3.16015
lowerneck -13.5822 -4.8169 -3.63981
upperneck -9.48942 -4.92417 5.24394
head -0.493856 -1.96891 2.09303
rclavicle 4.02539e-014 -2.82274e-014
rhumerus 72.9048 -16.7617 -51.8227
rradius 71.4963
rwrist 33.5157
rhand -51.5906 47.0961
rfingers 7.12502
rthumb -24.115 18.5916
lclavicle 4.02539e-014 -2.82274e-014
lhumerus 89.3684 -7.70719 48.4732
lradius 31.8922
lwrist -24.454
lhand -34.6247 60.2977
lfingers 7.12502
lthumb -7.78256 -90.1345
rfemur -20.8999 -3.30242 20.9407
rtibia 20.9723
rfoot -8.54881 -9.48418
rtoes -0.887211
lfemur 10.247 -6.30928 -14.4516
ltibia 10.3398
lfoot 9.31307 -0.171687
ltoes 38.9384
944
root 23.8043 16.5792 -5.97313 -168.244 32.3252 -180.218
lowerback -0.423656 -2.82474 -1.48085
upperback 1.41648 -3.75245 2.29198
thorax 1.94106 -1.90313 3.09755
lowerneck -14.0815 -4.91964 -3.81517
upperneck -9.50296 -4.99422 5.09977
head -0.415044 -1.97867 2.06518
rclavicle 1.41137e-014 4.37326e-015
rhumerus 73.368 -16.8242 -52.8244
rradius 71.9101
rwrist 34.5
rhand -52.355 47.1742
rfingers 7.12502
rthumb -24.8477 18.7689
lclavicle 1.41137e-014 4.37326e-015
lhumerus 89.6411 -7.71312 48.4656
lradius 32.145
lwrist -24.4921
lhand -34.7004 58.8282
lfingers 7.12502
lthumb -7.85557 88.6622
rfemur -20.9934 -3.44514 21.0774
rtibia 20.9486
rfoot -8.56396 -9.39808
rtoes 1.23277
lfemur 10.1966 -6.32066 -14.3058
ltibia 10.2766
lfoot 9.30268 -0.127207
ltoes 39.2517
945
root 23.8105 16.5793 -5.97197 -168.181 32.2646 -180.215
lowerback -0.28233 -2.77797 -1.35333
upperback 1.41763 -3.69073 2.25189
thorax 1.84779 -1.86881 2.99409
lowerneck -14.3642 -5.06133 -3.3196
upperneck -9.45039 -5.23249 5.08304
head -0.358609 -2.10445 1.95564
rclavicle -6.14245e-014 1.66979e-014
rhumerus 73.7011 -16.6652 -53.8013
rradius 72.1165
rwrist 35.2836
rhand -52.9673 47.1553
rfingers 7.12502
rthumb -25.4344 18.8322
lclavicle -6.14245e-014 1.66979e-014
lhumerus 89.6881 -7.70712 48.283
lradius 32.4832
lwrist -24.3465
lhand -34.6369 60.0617
lfingers 7.12502
lthumb -7.79437 89.898
rfemur -21.0463 -3.57268 21.1242
rtibia 20.9477
rfoot -8.64163 -9.3703
rtoes 0.550427
lfemur 10.1932 -6.36402 -14.2823
ltibia 10.2006
lfoot 9.29822 -0.209434
ltoes 38.7266
946
root 23.8171 16.5782 -5.97125 -168.107 32.1741 -180.169
lowerback -0.176803 -2.7757 -1.18584
upperback 1.37426 -3.68857 2.23316
thorax 1.7317 -1.86353 2.88809
lowerneck -14.3436 -5.0427 -3.72173
upperneck -9.66912 -5.11676 5.30979
head -0.417426 -2.02399 2.10956
rclavicle -1.31993e-013 2.3059e-014
rhumerus 73.9507 -16.4019 -54.5324
rradius 71.9425
rwrist 35.9608
rhand -53.3842 46.4923
rfingers 7.12502
rthumb -25.8337 18.2267
lclavicle -1.31993e-013 2.3059e-014
lhumerus 89.5959 -7.72815 48.3362
lradius 32.7516
lwrist -24.446
lhand -34.412 59.0441
lfingers 7.12502
lthumb -7.57729 88.8883
rfemur -21.0523 -3.5678 21.1892
rtibia 20.9221
rfoot -8.63249 -9.50236
rtoes -0.788896
lfemur 10.1602 -6.49153 -14.2253
ltibia 10.1935
lfoot 9.21989 -0.258055
ltoes 38.1568
947
root 23.8254 16.576 -5.96987 -168.021 32.0955 -180.163
lowerback -0.194291 -2.73605 -1.12812
upperback 1.37926 -3.63576 2.24541
thorax 1.7406 -1.83622 2.86864
lowerneck -14.3099 -5.10432 -3.23639
upperneck -9.63289 -5.27221 5.33609
head -0.418469 -2.11958 2.02521
rclavicle 5.43676e-014 -2.94201e-014
rhumerus 74.2269 -16.2396 -54.9809
rradius 71.385
rwrist 36.5968
rhand -53.6798 45.6671
rfingers 7.12502
rthumb -26.1168 17.443
lclavicle 5.43676e-014 -2.94201e-014
lhumerus 89.6241 -7.85834 48.9014
lradius 32.9474
lwrist -24.9637
lhand -34.7168 59.5468
lfingers 7.12502
lthumb -7.87149 89.3802
rfemur -21.1 -3.62405 21.2329
rtibia 20.895
rfoot -8.53269 -9.54109
rtoes -2.67977
lfemur 10.0738 -6.45878 -14.1407
ltibia 10.187
lfoot 9.18031 -0.259619
ltoes 38.5095
948
root 23.8314 16.5765 -5.96959 -167.952 32.0401 -180.181
lowerback -0.21834 -2.65798 -1.06488
upperback 1.41212 -3.53162 2.24539
thorax 1.77772 -1.78341 2.8336
lowerneck -14.6624 -5.25572 -3.68143
upperneck -9.5238 -5.38719 5.50034
head -0.301867 -2.15017 2.14483
rclavicle 1.2096e-013 -5.04913e-014
rhumerus 74.498 -16.1552 -55.3098
rradius 70.5208
rwrist 37.2811
rhand -53.9118 44.854
rfingers 7.12502
rthumb -26.3389 16.663
lclavicle 1.2096e-013 -5.04913e-014
lhumerus 89.7226 -7.89972 48.9298
lradius 33.2671
lwrist -24.9043
lhand -34.9432 59.2567
lfingers 7.12502
lthumb -8.08996 89.0819
rfemur -21.1685 -3.90368 21.3002
rtibia 20.9001
rfoot -8.52861 -9.363
rtoes -1.72239
lfemur 10.0113 -6.36063 -14.0799
ltibia 10.1375
lfoot 9.17867 -0.149597
ltoes 39.3268
949
root 23.8353 16.5773 -5.97058 -167.844 31.9931 -180.068
lowerback -0.206864 -2.60322 -0.851982
upperback 1.38828 -3.45963 2.22291
thorax 1.72818 -1.74335 2.69442
lowerneck -14.6191 -5.30037 -3.67401
upperneck -9.57842 -5.44982 5.33422
head -0.330166 -2.18244 2.08691
rclavicle -2.59414e-014 3.18055e-015
rhumerus 74.6981 -15.9607 -55.7103
rradius 69.2671
rwrist 38.074
rhand -53.9959 44.061
rfingers 7.12502
rthumb -26.4194 15.8821
lclavicle -2.59414e-014 3.18055e-015
lhumerus 89.695 -7.8643 48.1817
lradius 33.657
lwrist -24.1691
lhand -35.2304 59.719
lfingers 7.12502
lthumb -8.36712 89.5333
rfemur -21.2513 -4.16206 21.4716
rtibia 20.9715
rfoot -8.73704 -9.07621
rtoes -1.63088
lfemur 10.0485 -6.28567 -13.9346
ltibia 9.99499
lfoot 9.1686 -0.0238023
ltoes 39.7271
950
root 23.8413 16.5721 -5.9705 -167.836 32.022 -180.191
lowerback -0.231319 -2.54664 -0.878539
upperback 1.30025 -3.38533 2.11683
thorax 1.64231 -1.70604 2.60307
lowerneck -14.229 -5.24359 -3.64694
upperneck -9.85612 -5.38056 5.24802
head -0.489424 -2.1538 2.06753
rclavicle 6.81831e-014 1.51076e-014
rhumerus 74.7082 -15.6554 -55.9091
rradius 67.8038
rwrist 38.7704
rhand -53.7387 43.3144
rfingers 7.12502
rthumb -26.1732 15.0987
lclavicle 6.81831e-014 1.51076e-014
lhumerus 89.6213 -7.9883 47.501
lradius 33.9445
lwrist -23.3283
lhand -35.7281 60.6837
lfingers 7.12502
lthumb -8.84743 269.522
rfemur -21.3671 -4.22618 21.3865
rtibia 21.0623
rfoot -8.82875 -9.00094
rtoes -1.25912
lfemur 10.0732 -6.17227 -14.0178
ltibia 9.8388
lfoot 9.19088 -0.00600504
ltoes 40.1824
951
root 23.8461 16.5678 -5.97058 -167.919 32.0384 -180.434
lowerback -0.249429 -2.48725 -1.01112
upperback 1.24494 -3.30652 2.00242
thorax 1.59216 -1.66829 2.56194
lowerneck -14.6137 -5.28573 -4.03813
upperneck -9.24608 -5.42344 5.0953
head -0.221081 -2.17038 2.07017
rclavicle -7.08667e-014 1.39149e-014
rhumerus 74.6629 -15.2934 -55.6667
rradius 66.2032
rwrist 39.2562
rhand -52.9688 42.9775
rfingers 7.12502
rthumb -25.4358 14.6546
lclavicle -7.08667e-014 1.39149e-014
lhumerus 89.5884 -8.20998 47.8229
lradius 34.0751
lwrist -23.4791
lhand -35.3453 59.2583
lfingers 7.12502
lthumb -8.47803 449.068
rfemur -21.4399 -4.25292 21.1763
rtibia 21.1597
rfoot -8.8768 -9.09984
rtoes -1.92209
lfemur 10.1251 -6.09215 -14.22
ltibia 9.66072
lfoot 9.26834 -0.0877153
ltoes 40.5294
952
root 23.8497 16.5659 -5.97083 -167.923 31.9646 -180.44
lowerback -0.216694 -2.44859 -0.909765
upperback 1.21955 -3.25561 1.95491
thorax 1.53639 -1.64081 2.45977
lowerneck -14.5156 -5.40387 -3.64185
upperneck -9.31406 -5.63851 5.10377
head -0.262455 -2.29136 1.99469
rclavicle 2.22639e-014 -1.59028e-015
rhumerus 74.743 -14.9317 -55.3861
rradius 64.2701
rwrist 39.7039
rhand -51.9347 42.9687
rfingers 7.12502
rthumb -24.4449 14.5084
lclavicle 2.22639e-014 -1.59028e-015
lhumerus 89.5279 -8.44272 48.4421
lradius 34.2494
lwrist -23.8449
lhand -34.4934 56.8812
lfingers 7.12502
lthumb -7.65577 446.723
rfemur -21.462 -4.32095 21.1963
rtibia 21.2548
rfoot -8.85189 -9.25378
rtoes -1.72094
lfemur 10.2162 -6.06605 -14.1907
ltibia 9.45892
lfoot 9.41571 -0.116771
ltoes 40.4137
